<?xml version="1.0" standalone="no"?>
<!DOCTYPE svg PUBLIC "-//W3C//DTD SVG 20010904//EN"
 "http://www.w3.org/TR/2001/REC-SVG-20010904/DTD/svg10.dtd">
<svg version="1.0" xmlns="http://www.w3.org/2000/svg"
 width="100.000000pt" height="100.000000pt" viewBox="0 0 110.000000 110.000000"
 preserveAspectRatio="xMidYMid meet">

<g transform="translate(0.000000,100.000000) scale(0.100000,-0.100000)"
fill="#000000" stroke="none">
<path d="M225 801 c-11 -5 -31 -21 -45 -36 l-25 -27 0 -239 0 -239 33 -32 32
-33 280 0 280 0 32 33 33 32 0 240 0 240 -33 32 -32 33 -268 2 c-147 1 -276
-2 -287 -6z m554 -25 c46 -24 51 -50 51 -276 0 -226 -5 -252 -51 -276 -37 -19
-514 -21 -554 -2 -50 23 -55 48 -55 280 1 227 5 248 51 274 36 20 519 20 558
0z"/>
<path d="M222 737 c-21 -22 -22 -31 -22 -238 0 -212 0 -216 23 -237 23 -21 30
-22 278 -22 254 0 256 0 277 23 20 21 22 33 20 118 l-2 94 -5 -98 c-5 -82 -9
-101 -25 -113 -16 -11 -70 -14 -268 -14 -235 0 -249 1 -268 20 -19 19 -20 33
-20 228 0 164 3 212 14 228 13 18 32 19 243 24 l228 6 -226 2 c-224 2 -226 2
-247 -21z"/>
<path d="M336 518 c-16 -51 -31 -101 -33 -110 -8 -28 16 -21 27 7 8 21 16 25
49 25 33 0 40 -4 45 -25 6 -25 26 -35 26 -14 0 32 -62 209 -74 209 -7 0 -24
-39 -40 -92z m57 5 c3 -16 9 -36 12 -45 6 -15 2 -18 -24 -18 -34 0 -36 6 -20
61 13 43 24 43 32 2z"/>
<path d="M490 500 c0 -62 4 -110 9 -110 6 0 11 19 13 43 3 41 4 42 40 45 62 5
90 70 48 112 -14 14 -33 20 -65 20 l-45 0 0 -110z m84 77 c12 -9 17 -23 14
-42 -3 -27 -7 -30 -40 -33 -38 -3 -38 -3 -38 36 0 21 3 42 7 45 10 11 38 8 57
-6z"/>
<path d="M654 597 c-10 -28 1 -200 14 -205 9 -3 12 23 12 107 0 70 -4 111 -10
111 -6 0 -13 -6 -16 -13z"/>
<path d="M791 574 c0 -11 3 -14 6 -6 3 7 2 16 -1 19 -3 4 -6 -2 -5 -13z"/>
<path d="M792 515 c0 -16 2 -22 5 -12 2 9 2 23 0 30 -3 6 -5 -1 -5 -18z"/>
</g>
</svg>
