<?xml version="1.0" standalone="no"?>
<!DOCTYPE svg PUBLIC "-//W3C//DTD SVG 20010904//EN"
 "http://www.w3.org/TR/2001/REC-SVG-20010904/DTD/svg10.dtd">
<svg version="1.0" xmlns="http://www.w3.org/2000/svg"
 width="1802.000000pt" height="600.000000pt" viewBox="0 0 1802.000000 600.000000"
 preserveAspectRatio="xMidYMid meet">

<g transform="translate(0.000000,600.000000) scale(0.100000,-0.100000)"
fill="#000000" stroke="none">
<path d="M11120 5990 c0 -6 -34 -10 -83 -10 -46 0 -87 -4 -92 -9 -6 -5 -37
-12 -70 -15 -123 -13 -155 -18 -155 -27 0 -5 -18 -9 -39 -9 -22 0 -43 -4 -46
-10 -3 -5 -19 -10 -36 -10 -16 0 -37 -4 -47 -9 -9 -5 -37 -14 -62 -21 -25 -7
-53 -16 -62 -21 -10 -5 -25 -9 -33 -9 -8 0 -24 -4 -35 -10 -11 -5 -29 -14 -40
-20 -11 -5 -29 -10 -40 -10 -11 0 -20 -4 -20 -10 0 -5 -9 -10 -19 -10 -11 0
-23 -4 -26 -10 -3 -5 -17 -10 -31 -10 -13 0 -24 -4 -24 -10 0 -5 -9 -10 -20
-10 -11 0 -20 -4 -20 -10 0 -5 -9 -10 -20 -10 -11 0 -20 -4 -20 -10 0 -5 -9
-10 -20 -10 -11 0 -20 -4 -20 -10 0 -5 -9 -10 -20 -10 -11 0 -20 -4 -20 -10 0
-5 -9 -10 -20 -10 -11 0 -20 -4 -20 -10 0 -5 -9 -10 -20 -10 -11 0 -20 -4 -20
-8 0 -4 -22 -19 -50 -33 -27 -13 -50 -27 -50 -30 0 -4 -13 -12 -30 -19 -16 -7
-30 -16 -30 -21 0 -5 -6 -9 -13 -9 -7 0 -23 -9 -35 -20 -12 -11 -25 -20 -30
-20 -5 0 -23 -13 -40 -30 -18 -16 -35 -30 -40 -30 -4 0 -28 -18 -52 -40 -25
-22 -48 -40 -52 -40 -26 -1 -360 -338 -419 -421 -12 -19 -30 -41 -39 -49 -9
-8 -27 -31 -40 -50 -13 -19 -30 -41 -37 -48 -7 -7 -13 -17 -13 -21 0 -4 -11
-21 -25 -37 -14 -16 -25 -35 -25 -41 0 -7 -4 -13 -9 -13 -5 0 -11 -8 -14 -17
-6 -18 -37 -73 -47 -83 -3 -3 -11 -17 -19 -32 -8 -16 -18 -28 -23 -28 -4 0 -8
-9 -8 -20 0 -11 -4 -20 -10 -20 -5 0 -10 -6 -10 -13 0 -18 -24 -67 -32 -67 -5
0 -8 -9 -8 -20 0 -11 -4 -20 -10 -20 -5 0 -10 -9 -10 -20 0 -11 -4 -20 -10
-20 -5 0 -10 -11 -10 -24 0 -14 -4 -28 -10 -31 -5 -3 -10 -15 -10 -26 0 -10
-4 -19 -10 -19 -5 0 -10 -9 -10 -19 0 -11 -4 -23 -10 -26 -5 -3 -10 -17 -10
-31 0 -13 -4 -24 -10 -24 -5 0 -10 -11 -10 -24 0 -14 -4 -28 -10 -31 -5 -3
-10 -17 -10 -30 0 -13 -4 -27 -10 -30 -5 -3 -10 -19 -10 -36 0 -16 -4 -29 -10
-29 -5 0 -10 -15 -10 -34 0 -19 -4 -37 -9 -40 -9 -6 -17 -42 -27 -123 -4 -24
-10 -43 -14 -43 -5 0 -11 -24 -14 -52 -3 -29 -10 -82 -15 -118 -23 -137 -33
-420 -22 -595 15 -229 20 -286 31 -310 5 -11 11 -40 14 -65 2 -25 9 -65 16
-90 6 -25 14 -62 17 -83 3 -20 9 -40 14 -43 5 -3 9 -16 9 -30 0 -13 4 -32 9
-42 5 -9 15 -37 22 -62 7 -25 16 -49 21 -55 4 -5 8 -19 8 -31 0 -13 5 -26 10
-29 6 -3 10 -17 10 -31 0 -13 5 -24 10 -24 6 0 10 -6 10 -13 0 -7 9 -32 20
-55 11 -22 20 -48 20 -57 0 -8 5 -15 10 -15 6 0 10 -9 10 -20 0 -11 5 -20 10
-20 6 0 10 -9 10 -20 0 -11 5 -20 10 -20 6 0 10 -9 10 -20 0 -11 5 -20 10 -20
6 0 10 -9 10 -20 0 -11 5 -20 10 -20 6 0 10 -9 10 -20 0 -11 4 -20 9 -20 5 0
11 -8 14 -17 6 -18 37 -73 47 -83 3 -3 11 -17 19 -32 8 -16 18 -28 23 -28 4 0
8 -7 8 -16 0 -9 8 -24 18 -33 9 -9 23 -28 31 -44 8 -15 18 -27 23 -27 4 0 8
-6 8 -14 0 -7 12 -26 28 -42 15 -16 38 -45 52 -64 13 -19 31 -42 40 -50 8 -8
36 -40 60 -70 56 -68 206 -219 257 -257 20 -15 55 -45 76 -66 22 -20 44 -37
49 -37 5 0 20 -11 33 -24 14 -14 38 -33 55 -42 16 -10 30 -22 30 -26 0 -4 6
-8 13 -8 6 0 25 -11 41 -25 16 -14 33 -25 37 -25 4 0 14 -6 21 -13 19 -17 69
-47 91 -54 9 -3 17 -9 17 -14 0 -5 9 -9 20 -9 11 0 20 -3 20 -7 0 -5 10 -13
23 -19 12 -6 51 -26 87 -43 36 -18 82 -41 103 -52 22 -10 45 -19 53 -19 8 0
14 -4 14 -10 0 -5 9 -10 19 -10 11 0 23 -5 26 -10 3 -6 17 -10 31 -10 13 0 24
-4 24 -10 0 -5 11 -10 24 -10 14 0 28 -5 31 -10 3 -6 16 -10 29 -10 12 0 26
-3 30 -7 11 -11 79 -33 104 -33 12 0 22 -4 22 -10 0 -5 15 -10 34 -10 19 0 38
-4 41 -10 3 -5 21 -10 40 -10 19 0 37 -4 40 -10 3 -5 25 -10 49 -10 23 0 46
-4 52 -9 5 -5 32 -12 59 -15 28 -3 93 -11 145 -18 139 -17 5504 -17 5605 0 39
7 87 15 108 18 20 4 40 10 43 15 3 5 16 9 30 9 13 0 32 4 42 9 9 5 37 15 62
22 25 7 60 21 78 31 18 10 41 18 52 18 11 0 20 5 20 10 0 6 9 10 20 10 11 0
20 5 20 10 0 6 9 10 20 10 11 0 20 5 20 10 0 6 9 10 20 10 11 0 20 4 20 9 0 5
14 14 30 21 17 7 30 16 30 21 0 5 6 9 13 9 7 0 23 9 35 20 12 11 25 20 30 20
5 0 23 14 40 30 18 17 36 30 41 30 12 0 232 219 261 260 13 19 32 44 42 54 10
11 18 25 18 31 0 6 9 17 20 25 11 8 20 22 20 31 0 10 3 19 8 21 9 4 41 57 49
81 3 9 9 17 14 17 5 0 9 9 9 20 0 11 5 20 10 20 6 0 10 9 10 20 0 11 5 20 10
20 6 0 10 9 10 20 0 11 5 20 10 20 6 0 10 10 10 23 0 13 4 27 8 32 5 6 19 44
31 85 13 41 27 84 32 95 4 11 10 36 13 55 3 19 11 64 18 100 15 83 15 452 -1
540 -6 36 -14 84 -17 108 -3 23 -10 42 -15 42 -5 0 -9 10 -9 22 0 21 -13 69
-33 118 -5 14 -14 36 -20 50 -5 14 -13 33 -18 42 -5 10 -9 25 -9 33 0 8 -4 15
-10 15 -5 0 -10 9 -10 20 0 11 -4 20 -10 20 -5 0 -10 9 -10 20 0 11 -4 20 -10
20 -5 0 -10 9 -10 20 0 11 -4 20 -9 20 -5 0 -14 13 -21 30 -7 17 -16 30 -21
30 -5 0 -9 6 -9 13 0 7 -9 23 -20 35 -11 12 -20 25 -20 30 0 5 -13 23 -30 40
-16 18 -30 36 -30 40 0 13 -199 214 -240 242 -19 14 -45 34 -57 47 -12 12 -32
24 -43 28 -11 3 -20 11 -20 16 0 5 -6 9 -13 9 -7 0 -22 8 -33 18 -25 22 -69
48 -116 70 -21 9 -38 20 -38 24 0 5 -7 8 -15 8 -8 0 -23 4 -33 9 -9 5 -30 14
-47 21 -16 7 -38 16 -47 21 -10 5 -27 9 -38 9 -11 0 -20 5 -20 10 0 6 -9 10
-20 10 -23 0 -27 19 -40 175 -10 122 -23 207 -40 275 -6 25 -14 60 -17 78 -3
18 -9 35 -14 38 -5 3 -9 18 -9 34 0 16 -4 32 -10 35 -5 3 -10 17 -10 30 0 13
-4 27 -10 30 -5 3 -10 17 -10 30 0 13 -4 27 -10 30 -5 3 -10 15 -10 26 0 10
-4 19 -10 19 -5 0 -10 7 -10 15 0 8 -4 23 -9 33 -5 9 -22 44 -38 77 -50 100
-78 150 -85 153 -5 2 -8 9 -8 15 0 7 -11 25 -25 41 -13 16 -27 37 -30 47 -4
11 -11 19 -16 19 -5 0 -9 6 -9 13 0 7 -8 22 -18 33 -10 10 -28 34 -41 53 -60
85 -335 361 -359 361 -4 0 -28 18 -52 40 -24 22 -48 40 -53 40 -4 0 -17 9 -29
20 -12 11 -28 20 -35 20 -7 0 -13 4 -13 9 0 5 -13 14 -30 21 -16 7 -30 16 -30
21 0 5 -9 9 -20 9 -11 0 -20 5 -20 10 0 6 -9 10 -20 10 -11 0 -20 3 -20 8 0
11 -163 92 -187 92 -7 0 -13 5 -13 10 0 6 -9 10 -20 10 -11 0 -29 5 -40 10
-11 6 -29 15 -40 20 -11 6 -27 10 -35 10 -8 0 -23 4 -33 9 -29 14 -87 31 -110
31 -11 0 -24 5 -27 10 -3 6 -25 10 -49 10 -23 0 -46 4 -51 9 -6 5 -32 12 -60
15 -321 39 -487 38 -745 -4 -36 -6 -83 -13 -105 -16 -22 -3 -44 -10 -49 -15
-6 -5 -22 -9 -37 -9 -15 0 -31 -4 -34 -10 -3 -5 -19 -10 -35 -10 -16 0 -32 -4
-35 -10 -3 -5 -17 -10 -30 -10 -13 0 -27 -4 -30 -10 -3 -5 -17 -10 -31 -10
-13 0 -24 -4 -24 -10 0 -5 -7 -10 -15 -10 -8 0 -25 -5 -38 -12 -47 -24 -57
-28 -72 -28 -8 0 -15 -4 -15 -10 0 -5 -9 -10 -20 -10 -11 0 -20 -4 -20 -10 0
-5 -9 -10 -19 -10 -11 0 -21 -3 -23 -7 -3 -7 -55 -37 -115 -67 -13 -6 -23 -14
-23 -18 0 -5 -6 -8 -13 -8 -7 0 -22 -8 -33 -17 -56 -50 -59 -49 -137 19 -40
35 -84 75 -99 91 -14 15 -30 27 -36 27 -5 0 -22 12 -38 28 -16 15 -45 38 -64
52 -19 13 -44 32 -54 42 -11 10 -26 18 -33 18 -7 0 -13 4 -13 8 0 5 -12 15
-27 23 -16 8 -37 22 -47 32 -11 9 -25 17 -32 17 -7 0 -14 3 -16 8 -1 4 -24 18
-50 31 -27 13 -48 28 -48 33 0 4 -9 8 -20 8 -11 0 -20 5 -20 10 0 6 -9 10 -20
10 -11 0 -20 5 -20 10 0 6 -9 10 -20 10 -11 0 -20 5 -20 10 0 6 -9 10 -20 10
-11 0 -20 5 -20 10 0 6 -9 10 -20 10 -11 0 -20 5 -20 10 0 6 -7 10 -15 10 -8
0 -24 5 -35 10 -11 6 -29 15 -40 20 -11 6 -27 10 -35 10 -8 0 -15 5 -15 10 0
6 -11 10 -24 10 -14 0 -28 5 -31 10 -3 6 -15 10 -26 10 -10 0 -19 5 -19 10 0
6 -11 10 -25 10 -14 0 -33 4 -43 9 -9 5 -37 15 -62 21 -25 7 -54 16 -65 20
-11 5 -33 11 -50 15 -16 3 -48 11 -70 16 -22 6 -58 13 -80 15 -22 3 -49 9 -60
14 -23 10 -81 18 -202 26 -46 3 -83 10 -83 15 0 5 -105 9 -240 9 -153 0 -240
-4 -240 -10z m203 -1106 c64 -4 117 -11 117 -16 0 -4 27 -8 59 -8 33 0 63 -4
66 -10 3 -5 18 -10 32 -10 15 0 40 -4 57 -9 17 -5 51 -15 76 -21 25 -7 53 -16
62 -21 10 -5 25 -9 33 -9 8 0 23 -4 33 -9 9 -5 28 -13 42 -18 14 -6 45 -20 68
-32 24 -11 50 -21 58 -21 8 0 14 -4 14 -10 0 -5 9 -10 20 -10 11 0 20 -4 20
-9 0 -5 8 -11 18 -14 22 -7 71 -37 96 -59 11 -10 26 -18 33 -18 7 0 13 -4 13
-8 0 -5 12 -15 28 -23 15 -8 38 -25 52 -39 14 -14 42 -38 62 -53 49 -36 146
-132 181 -180 16 -20 39 -48 53 -62 13 -13 24 -29 24 -36 0 -6 8 -19 18 -28 9
-9 23 -28 31 -43 8 -16 18 -28 23 -28 4 0 8 -9 8 -20 0 -11 4 -20 9 -20 11 0
111 -201 111 -224 0 -9 5 -16 10 -16 6 0 10 -9 10 -19 0 -11 5 -23 10 -26 6
-3 10 -15 10 -26 0 -10 4 -27 9 -37 15 -29 31 -87 31 -110 0 -12 5 -22 10 -22
6 0 10 -15 10 -34 0 -19 5 -38 10 -41 6 -3 10 -25 10 -49 0 -23 4 -46 9 -51 5
-6 12 -37 15 -70 3 -33 11 -116 18 -185 21 -220 14 -482 -21 -720 -5 -36 -13
-86 -17 -113 -3 -26 -11 -50 -15 -53 -5 -3 -9 -20 -9 -39 0 -19 -4 -37 -10
-40 -5 -3 -10 -17 -10 -31 0 -13 -4 -32 -9 -42 -5 -9 -14 -35 -20 -57 -13 -41
-26 -76 -42 -107 -5 -10 -9 -25 -9 -33 0 -8 -4 -15 -10 -15 -5 0 -10 -6 -10
-14 0 -16 -62 -140 -72 -144 -5 -2 -8 -10 -8 -18 0 -8 -9 -24 -20 -36 -11 -12
-20 -28 -20 -35 0 -7 -4 -13 -10 -13 -5 0 -10 -6 -10 -12 0 -7 -14 -29 -30
-48 -16 -19 -30 -39 -30 -44 0 -12 -296 -306 -309 -306 -5 0 -20 -10 -33 -23
-13 -12 -35 -28 -50 -36 -16 -8 -28 -18 -28 -23 0 -4 -7 -8 -15 -8 -9 0 -25
-9 -37 -20 -12 -11 -28 -20 -35 -20 -7 0 -13 -4 -13 -10 0 -5 -9 -10 -20 -10
-11 0 -20 -4 -20 -10 0 -5 -9 -10 -20 -10 -11 0 -20 -4 -20 -10 0 -5 -7 -10
-15 -10 -8 0 -24 -5 -35 -10 -11 -6 -29 -15 -40 -20 -11 -6 -27 -10 -35 -10
-8 0 -15 -4 -15 -10 0 -5 -11 -10 -24 -10 -14 0 -28 -4 -31 -10 -3 -5 -19 -10
-36 -10 -16 0 -29 -4 -29 -9 0 -5 -15 -11 -32 -14 -18 -4 -49 -9 -68 -12 -19
-4 -44 -10 -55 -15 -11 -5 -40 -11 -65 -15 -25 -3 -83 -11 -130 -17 -116 -16
-473 -16 -590 0 -52 7 -117 15 -145 18 -27 3 -54 10 -59 15 -6 5 -25 9 -42 9
-18 0 -36 4 -39 10 -3 5 -21 10 -40 10 -19 0 -37 4 -40 10 -3 5 -17 10 -31 10
-13 0 -24 5 -24 10 0 6 -11 10 -24 10 -14 0 -27 4 -30 8 -3 4 -28 14 -55 22
-28 7 -51 17 -51 22 0 4 -9 8 -20 8 -11 0 -20 5 -20 10 0 6 -9 10 -20 10 -11
0 -20 5 -20 10 0 6 -7 10 -15 10 -9 0 -25 9 -37 20 -12 11 -28 20 -35 20 -7 0
-13 5 -13 10 0 6 -9 10 -20 10 -11 0 -20 4 -20 8 0 5 -12 15 -27 23 -16 8 -35
22 -44 31 -9 10 -21 18 -26 18 -5 0 -43 31 -84 70 -41 38 -79 70 -84 70 -6 0
-18 12 -27 27 -9 16 -42 54 -72 86 -31 31 -56 61 -56 65 0 5 -8 17 -18 28 -28
30 -82 111 -82 123 0 6 -4 11 -10 11 -5 0 -10 9 -10 20 0 11 -4 20 -9 20 -5 0
-16 17 -26 38 -9 20 -28 59 -41 86 -13 28 -24 56 -24 63 0 7 -4 13 -10 13 -5
0 -10 9 -10 20 0 11 -4 28 -9 38 -29 57 -71 193 -71 231 0 17 -4 31 -10 31 -5
0 -10 19 -10 43 0 24 -4 47 -9 53 -5 5 -12 34 -14 64 -3 30 -12 114 -19 185
-20 206 -17 332 18 725 3 36 10 69 15 75 5 5 9 28 9 51 0 24 5 46 10 49 6 3
10 21 10 40 0 19 5 37 10 40 6 3 10 22 10 41 0 19 5 34 10 34 6 0 10 14 10 30
0 17 5 30 10 30 6 0 10 11 10 24 0 14 5 28 10 31 6 3 10 15 10 25 0 11 9 35
20 55 11 20 20 42 20 50 0 8 5 15 10 15 6 0 10 9 10 20 0 11 4 20 9 20 5 0 11
8 14 18 8 23 40 76 50 80 4 2 7 10 7 18 0 8 9 24 20 36 11 12 20 28 20 35 0 7
4 13 8 13 4 0 16 13 25 30 10 16 23 35 30 42 7 7 25 30 41 51 38 52 213 226
256 257 19 13 41 30 48 37 7 7 26 20 42 30 17 9 30 21 30 25 0 4 8 8 18 8 10
0 24 9 32 20 8 11 22 20 32 20 10 0 18 5 18 10 0 6 9 10 20 10 11 0 20 5 20
10 0 6 9 10 20 10 11 0 20 5 20 10 0 6 7 10 15 10 8 0 23 4 33 9 9 5 31 14 47
21 17 7 38 16 47 21 10 5 27 9 38 9 11 0 20 5 20 10 0 6 15 10 34 10 19 0 38
5 41 10 3 6 19 10 35 10 16 0 32 5 35 10 3 6 23 10 44 10 20 0 41 4 47 9 10
10 52 15 258 31 77 5 142 13 145 16 3 4 42 4 86 0 44 -3 133 -9 198 -12z
m3477 -5 c187 -16 225 -21 234 -30 6 -5 27 -9 47 -9 21 0 41 -4 44 -10 3 -5
22 -10 41 -10 19 0 34 -4 34 -10 0 -5 14 -10 30 -10 17 0 30 -4 30 -10 0 -5
11 -10 24 -10 14 0 28 -4 31 -10 3 -5 13 -10 21 -10 8 0 34 -9 56 -20 23 -11
46 -20 50 -20 5 0 18 -9 30 -20 12 -11 28 -20 35 -20 7 0 13 -4 13 -10 0 -5 8
-10 18 -10 10 0 24 -9 32 -20 8 -11 20 -20 26 -20 14 0 224 -204 224 -217 0
-4 14 -24 30 -43 16 -19 30 -41 30 -47 0 -7 5 -13 10 -13 6 0 10 -9 10 -20 0
-11 4 -20 8 -20 9 0 52 -89 52 -108 0 -7 5 -12 10 -12 6 0 10 -11 10 -24 0
-14 5 -28 10 -31 6 -3 10 -19 10 -35 0 -16 5 -32 10 -35 6 -3 10 -21 10 -40 0
-19 4 -36 9 -39 8 -5 21 -106 24 -191 l2 -40 -145 -7 c-229 -12 -603 -24 -627
-19 -14 2 -23 10 -23 22 0 10 -4 21 -10 24 -5 3 -10 21 -10 40 0 19 -4 37 -10
40 -5 3 -10 15 -10 26 0 10 -4 27 -9 37 -5 9 -19 38 -31 65 -13 26 -27 47 -32
47 -4 0 -8 6 -8 14 0 26 -105 122 -168 154 -35 18 -70 32 -78 32 -8 0 -14 5
-14 10 0 6 -18 10 -40 10 -22 0 -40 4 -40 9 0 30 -507 30 -526 0 -3 -5 -21 -9
-40 -9 -19 0 -34 -4 -34 -10 0 -5 -9 -10 -20 -10 -11 0 -28 -4 -38 -9 -9 -5
-32 -16 -49 -23 -18 -7 -33 -16 -33 -20 0 -5 -7 -8 -16 -8 -26 0 -144 -127
-144 -156 0 -13 -4 -24 -10 -24 -6 0 -10 -35 -10 -84 0 -47 5 -88 10 -91 6 -3
10 -15 10 -26 0 -10 5 -19 10 -19 6 0 10 -6 10 -14 0 -19 107 -126 126 -126 8
0 14 -4 14 -10 0 -5 9 -10 20 -10 11 0 20 -4 20 -10 0 -5 9 -10 20 -10 11 0
20 -4 20 -10 0 -5 11 -10 24 -10 14 0 28 -4 31 -10 3 -5 15 -10 26 -10 10 0
19 -4 19 -10 0 -5 14 -10 30 -10 17 0 30 -4 30 -10 0 -5 14 -10 30 -10 17 0
30 -4 30 -9 0 -5 16 -12 35 -15 19 -3 51 -9 70 -12 19 -3 38 -10 41 -15 3 -5
18 -9 34 -9 16 0 31 -4 34 -9 6 -8 31 -14 119 -27 20 -4 40 -10 43 -15 3 -5
23 -9 44 -9 21 0 42 -4 45 -10 3 -5 19 -10 35 -10 16 0 31 -4 34 -9 6 -8 18
-11 109 -27 20 -3 37 -10 37 -15 0 -5 15 -9 34 -9 19 0 38 -4 41 -10 3 -5 19
-10 36 -10 16 0 29 -4 29 -10 0 -5 14 -10 30 -10 17 0 30 -4 30 -10 0 -5 14
-10 30 -10 17 0 30 -4 30 -10 0 -5 11 -10 24 -10 14 0 28 -4 31 -10 3 -5 15
-10 26 -10 10 0 19 -4 19 -10 0 -5 11 -10 24 -10 14 0 28 -4 31 -10 3 -5 15
-10 26 -10 10 0 19 -4 19 -10 0 -5 9 -10 20 -10 11 0 20 -4 20 -10 0 -5 9 -10
20 -10 11 0 20 -3 20 -8 0 -4 17 -15 38 -24 20 -9 51 -28 67 -42 17 -14 34
-26 39 -26 5 0 16 -8 25 -18 9 -9 37 -33 62 -52 25 -18 60 -53 77 -76 18 -23
45 -55 60 -71 25 -27 38 -46 66 -98 6 -11 13 -22 16 -25 12 -12 30 -51 30 -65
0 -8 5 -15 10 -15 6 0 10 -9 10 -19 0 -11 5 -23 10 -26 6 -3 10 -17 10 -30 0
-13 5 -27 10 -30 6 -3 10 -19 10 -34 0 -15 4 -31 9 -36 22 -24 43 -312 31
-436 -14 -137 -21 -183 -31 -193 -5 -6 -9 -20 -9 -32 0 -13 -4 -26 -10 -29 -5
-3 -10 -15 -10 -26 0 -10 -4 -28 -10 -39 -5 -11 -14 -29 -20 -40 -5 -11 -10
-27 -10 -35 0 -8 -4 -15 -10 -15 -5 0 -10 -9 -10 -20 0 -11 -4 -20 -9 -20 -5
0 -11 -8 -14 -17 -6 -19 -38 -74 -47 -83 -3 -3 -17 -21 -30 -40 -31 -47 -227
-240 -243 -240 -7 0 -19 -9 -27 -20 -8 -11 -22 -20 -32 -20 -10 0 -18 -4 -18
-8 0 -11 -162 -92 -184 -92 -9 0 -16 -4 -16 -10 0 -5 -11 -10 -24 -10 -14 0
-28 -4 -31 -10 -3 -5 -17 -10 -30 -10 -13 0 -27 -5 -30 -10 -3 -6 -19 -10 -35
-10 -16 0 -31 -4 -34 -9 -6 -9 -51 -18 -143 -27 -29 -3 -53 -9 -53 -14 0 -23
-625 -33 -775 -12 -44 6 -100 14 -125 17 -25 4 -54 10 -65 15 -11 5 -36 11
-55 15 -19 3 -50 8 -67 12 -18 3 -33 9 -33 14 0 5 -13 9 -30 9 -16 0 -30 4
-30 8 0 5 -22 15 -50 22 -27 7 -50 17 -50 22 0 4 -9 8 -20 8 -11 0 -20 5 -20
10 0 6 -9 10 -20 10 -11 0 -20 5 -20 10 0 6 -9 10 -20 10 -11 0 -20 5 -20 10
0 6 -6 10 -13 10 -7 0 -23 9 -35 20 -12 11 -25 20 -30 20 -4 0 -17 8 -28 18
-10 9 -39 33 -64 52 -50 39 -160 147 -160 158 0 4 -16 25 -35 47 -19 22 -35
44 -35 50 0 6 -9 17 -20 25 -11 8 -20 22 -20 32 0 10 -4 18 -10 18 -5 0 -10 7
-10 16 0 8 -7 22 -15 31 -9 8 -19 28 -22 44 -3 16 -8 29 -12 29 -3 0 -12 15
-19 33 -7 17 -18 40 -23 49 -5 10 -9 27 -9 38 0 11 -4 20 -10 20 -5 0 -10 11
-10 25 0 14 -4 33 -9 43 -17 33 -31 89 -31 120 0 18 -4 32 -9 32 -5 0 -12 24
-15 53 -3 28 -8 73 -12 98 l-6 47 52 11 c28 6 88 11 133 11 46 0 87 4 92 9 10
9 77 15 290 27 55 3 104 10 110 15 13 13 79 11 93 -3 7 -7 12 -29 12 -50 0
-21 5 -38 10 -38 6 0 10 -15 10 -34 0 -19 5 -38 10 -41 6 -3 10 -15 10 -26 0
-10 4 -27 9 -37 5 -9 24 -48 42 -87 18 -38 37 -71 41 -73 4 -2 8 -9 8 -15 0
-7 11 -25 25 -41 14 -16 25 -32 25 -37 0 -11 69 -77 101 -96 16 -10 29 -20 29
-24 0 -4 14 -12 30 -19 17 -7 30 -16 30 -21 0 -5 9 -9 20 -9 11 0 20 -4 20
-10 0 -5 10 -10 23 -10 13 0 27 -4 33 -8 8 -8 34 -16 129 -41 93 -24 266 -29
400 -12 146 19 170 23 179 32 6 5 18 9 28 9 10 0 26 4 36 9 9 5 35 17 57 28
72 35 88 47 159 118 66 65 116 139 116 170 0 7 5 15 12 17 8 3 12 42 12 129 1
114 -1 130 -24 175 -34 68 -113 143 -188 182 -35 18 -70 32 -78 32 -8 0 -14 5
-14 10 0 6 -7 10 -15 10 -8 0 -23 4 -33 9 -9 5 -37 15 -62 21 -25 7 -54 16
-65 20 -21 9 -60 18 -113 27 -18 3 -35 9 -38 14 -3 5 -18 9 -34 9 -16 0 -32 5
-35 10 -3 6 -21 10 -40 10 -19 0 -37 5 -40 10 -3 6 -21 10 -40 10 -19 0 -37 5
-40 10 -3 6 -21 10 -40 10 -19 0 -37 5 -40 10 -3 6 -21 10 -40 10 -19 0 -36 4
-39 9 -3 5 -20 11 -38 14 -52 9 -91 18 -113 26 -45 18 -93 31 -113 31 -12 0
-22 5 -22 10 0 6 -11 10 -24 10 -14 0 -28 5 -31 10 -3 6 -13 10 -21 10 -8 0
-36 9 -62 21 -26 12 -58 26 -72 31 -14 6 -33 14 -42 19 -10 5 -25 9 -33 9 -8
0 -15 5 -15 10 0 6 -9 10 -20 10 -11 0 -20 5 -20 10 0 6 -9 10 -20 10 -11 0
-20 4 -20 9 0 5 -13 14 -30 21 -16 7 -30 16 -30 21 0 5 -8 9 -18 9 -10 0 -24
9 -32 20 -8 11 -20 20 -26 20 -15 0 -172 154 -204 200 -13 19 -31 42 -40 50
-15 15 -42 61 -80 140 -13 25 -26 53 -31 62 -5 10 -9 25 -9 33 0 8 -4 15 -10
15 -5 0 -10 15 -10 33 0 18 -4 37 -9 43 -15 15 -23 90 -28 253 -2 100 0 158 6
164 6 6 11 28 11 48 0 21 5 41 10 44 6 3 10 19 10 35 0 16 4 31 8 34 4 3 14
28 22 55 7 28 17 51 22 51 4 0 8 9 8 20 0 11 4 20 9 20 5 0 11 8 14 18 7 22
37 71 60 96 9 11 17 24 17 29 0 12 205 217 217 217 5 0 18 8 29 18 10 9 31 23
47 31 15 8 27 18 27 23 0 4 9 8 20 8 11 0 20 5 20 10 0 6 9 10 20 10 11 0 20
5 20 10 0 6 9 10 19 10 11 0 23 5 26 10 3 6 17 10 30 10 13 0 25 3 27 8 4 10
130 52 156 52 12 0 23 4 26 9 3 5 23 11 43 15 21 3 67 10 103 16 36 6 121 15
190 20 69 6 130 12 135 15 11 5 161 -2 325 -16z"/>
<path d="M11070 4214 c-8 -2 -55 -8 -105 -14 -137 -15 -175 -21 -181 -31 -3
-5 -18 -9 -35 -9 -16 0 -29 -4 -29 -10 0 -5 -11 -10 -24 -10 -14 0 -28 -4 -31
-10 -3 -5 -15 -10 -26 -10 -10 0 -19 -4 -19 -9 0 -5 -8 -11 -17 -14 -19 -6
-74 -38 -83 -47 -3 -3 -21 -17 -40 -30 -46 -31 -220 -208 -220 -223 0 -7 -9
-19 -20 -27 -11 -8 -20 -22 -20 -31 0 -10 -3 -19 -7 -21 -11 -4 -53 -87 -53
-104 0 -8 -3 -14 -7 -14 -5 0 -19 -35 -31 -78 -13 -42 -28 -85 -33 -94 -5 -10
-9 -34 -9 -53 0 -19 -4 -35 -9 -35 -5 0 -12 -26 -15 -57 -19 -181 -29 -329
-30 -408 0 -128 16 -355 26 -361 4 -3 8 -27 8 -54 0 -27 5 -52 10 -55 6 -3 10
-21 10 -40 0 -19 5 -37 10 -40 6 -3 10 -17 10 -30 0 -13 5 -27 10 -30 6 -3 10
-15 10 -26 0 -10 4 -27 9 -37 5 -9 28 -57 51 -107 24 -49 47 -91 52 -93 4 -2
8 -9 8 -16 0 -7 8 -21 18 -32 10 -10 29 -35 42 -54 32 -45 115 -128 160 -160
19 -13 44 -32 54 -42 11 -10 26 -18 33 -18 7 0 13 -4 13 -10 0 -5 5 -10 11
-10 6 0 23 -8 37 -19 15 -10 45 -24 67 -32 22 -8 42 -16 45 -19 9 -11 128 -41
226 -59 76 -14 331 -15 339 -1 3 5 26 10 50 10 24 0 47 4 50 10 3 5 22 10 41
10 19 0 34 5 34 10 0 6 11 10 24 10 14 0 28 5 31 10 3 6 15 10 26 10 10 0 19
5 19 10 0 6 9 10 20 10 11 0 20 5 20 10 0 6 9 10 20 10 11 0 20 5 20 10 0 6 6
10 13 10 7 0 22 8 33 18 10 10 35 29 54 42 48 33 184 172 206 210 10 16 22 30
26 30 4 0 8 7 8 15 0 9 9 25 20 37 11 12 20 28 20 35 0 7 5 13 10 13 6 0 10 9
10 20 0 11 4 20 8 20 5 0 15 22 22 50 7 27 17 50 22 50 4 0 8 14 8 30 0 17 4
30 9 30 5 0 11 15 14 33 9 54 18 91 27 112 26 59 45 444 31 648 -14 227 -21
287 -32 287 -5 0 -9 18 -9 39 0 22 -4 43 -10 46 -5 3 -10 22 -10 41 0 19 -4
34 -10 34 -5 0 -10 14 -10 30 0 17 -4 30 -10 30 -5 0 -10 6 -10 13 0 15 -33
89 -56 127 -8 14 -18 33 -21 43 -3 9 -9 17 -14 17 -5 0 -9 6 -9 13 0 7 -8 22
-18 33 -10 10 -25 30 -35 44 -25 36 -118 130 -130 130 -5 0 -21 12 -35 28 -15
15 -39 33 -54 41 -16 8 -28 18 -28 23 0 4 -9 8 -20 8 -11 0 -20 5 -20 10 0 6
-9 10 -20 10 -11 0 -20 5 -20 10 0 6 -9 10 -20 10 -11 0 -20 5 -20 10 0 6 -11
10 -24 10 -14 0 -28 5 -31 10 -3 6 -19 10 -36 10 -16 0 -29 4 -29 9 0 9 -31
15 -160 30 -125 15 -194 20 -210 15z"/>
<path d="M890 3610 c-8 -5 -33 -10 -54 -10 -22 0 -53 -4 -70 -9 -112 -34 -176
-54 -206 -68 -88 -39 -129 -62 -151 -85 -9 -10 -20 -18 -25 -18 -14 0 -97 -81
-124 -120 -14 -19 -32 -44 -42 -54 -10 -11 -18 -26 -18 -33 0 -7 -3 -13 -7
-13 -9 0 -33 -49 -33 -67 0 -7 -4 -13 -10 -13 -5 0 -10 -11 -10 -24 0 -14 -4
-27 -9 -30 -15 -10 -23 -76 -28 -233 -3 -103 -1 -153 7 -153 5 0 10 -18 10
-40 0 -22 5 -40 10 -40 6 0 10 -9 10 -19 0 -22 52 -124 75 -147 8 -9 15 -19
15 -24 0 -13 89 -101 130 -130 19 -13 37 -27 40 -30 5 -5 36 -23 70 -40 11 -5
29 -14 40 -20 11 -5 27 -10 35 -10 8 0 15 -4 15 -8 0 -5 23 -15 51 -22 27 -8
52 -18 55 -22 3 -4 16 -8 29 -8 13 0 27 -4 30 -10 3 -5 17 -10 31 -10 13 0 24
-4 24 -10 0 -5 14 -10 30 -10 17 0 30 -4 30 -10 0 -5 18 -10 40 -10 22 0 40
-4 40 -10 0 -5 13 -10 29 -10 17 0 33 -4 36 -10 3 -5 21 -10 40 -10 19 0 37
-4 40 -10 3 -5 19 -10 35 -10 16 0 32 -4 35 -10 3 -5 24 -10 46 -10 21 0 39
-4 39 -10 0 -5 18 -10 39 -10 22 0 42 -4 45 -9 3 -5 24 -12 46 -15 22 -3 58
-9 80 -12 22 -3 43 -10 46 -15 3 -5 18 -9 35 -9 16 0 29 -4 29 -10 0 -5 9 -10
20 -10 20 0 84 -32 105 -53 30 -30 39 -65 39 -141 0 -52 -5 -81 -12 -84 -7 -2
-12 -10 -12 -17 0 -17 -68 -85 -86 -85 -8 0 -14 -4 -14 -10 0 -5 -9 -10 -20
-10 -11 0 -20 -4 -20 -10 0 -5 -13 -10 -30 -10 -16 0 -30 -4 -30 -10 0 -5 -22
-10 -50 -10 -27 0 -50 -4 -50 -10 0 -6 -55 -10 -144 -10 -86 0 -147 4 -151 10
-3 5 -24 10 -46 10 -21 0 -39 5 -39 10 0 6 -13 10 -30 10 -16 0 -30 5 -30 10
0 6 -9 10 -20 10 -11 0 -20 4 -20 8 0 5 -12 15 -27 23 -36 18 -84 66 -102 102
-8 15 -18 27 -23 27 -4 0 -8 9 -8 20 0 11 -4 20 -10 20 -5 0 -10 9 -10 20 0
11 -4 20 -10 20 -5 0 -10 14 -10 30 0 17 -4 30 -10 30 -5 0 -10 10 -10 21 0
20 -3 21 -52 15 -64 -9 -150 -22 -238 -36 -78 -13 -178 -27 -240 -35 -101 -12
-150 -27 -150 -47 0 -10 5 -18 10 -18 6 0 10 -9 10 -20 0 -11 4 -28 9 -38 5
-9 14 -30 21 -47 7 -16 22 -48 33 -70 12 -22 26 -50 32 -62 5 -13 13 -23 18
-23 4 0 7 -6 7 -12 1 -24 138 -177 205 -228 50 -39 115 -80 124 -80 6 0 11 -3
11 -7 0 -9 49 -33 67 -33 7 0 13 -4 13 -10 0 -5 9 -10 20 -10 11 0 20 -4 20
-10 0 -5 11 -10 24 -10 14 0 28 -4 31 -10 3 -5 19 -10 36 -10 16 0 29 -4 29
-10 0 -5 15 -10 33 -10 18 0 37 -4 42 -9 12 -11 71 -18 277 -33 193 -13 555 7
583 33 5 5 18 9 29 9 21 0 80 17 108 31 10 5 25 9 33 9 8 0 15 5 15 10 0 6 7
10 15 10 24 0 124 51 153 77 7 7 18 13 23 13 15 0 216 206 224 229 3 11 11 21
16 21 5 0 9 9 9 20 0 11 3 20 8 20 8 0 32 49 32 67 0 7 5 13 10 13 6 0 10 11
10 24 0 14 5 28 10 31 6 3 10 19 10 35 0 16 4 32 10 35 13 8 13 332 0 340 -5
3 -10 22 -10 41 0 19 -4 34 -10 34 -5 0 -10 14 -10 30 0 17 -4 30 -10 30 -5 0
-10 9 -10 20 0 11 -4 20 -10 20 -5 0 -10 6 -10 13 0 13 -58 85 -98 121 -76 69
-97 86 -109 86 -7 0 -13 5 -13 10 0 6 -9 10 -20 10 -11 0 -20 3 -20 8 0 8 -49
32 -67 32 -7 0 -13 5 -13 10 0 6 -9 10 -20 10 -11 0 -20 5 -20 10 0 6 -9 10
-19 10 -11 0 -23 5 -26 10 -3 6 -17 10 -31 10 -13 0 -24 5 -24 10 0 6 -11 10
-24 10 -14 0 -28 5 -31 10 -3 6 -17 10 -30 10 -13 0 -27 5 -30 10 -3 6 -19 10
-35 10 -16 0 -32 5 -35 10 -3 6 -22 10 -41 10 -19 0 -34 5 -34 10 0 6 -15 10
-34 10 -19 0 -38 5 -41 10 -3 6 -24 10 -46 10 -21 0 -39 5 -39 10 0 6 -18 10
-39 10 -22 0 -43 5 -46 10 -3 6 -21 10 -40 10 -19 0 -37 5 -40 10 -3 6 -21 10
-40 10 -19 0 -37 5 -40 10 -3 6 -19 10 -36 10 -16 0 -37 4 -47 9 -9 5 -37 14
-62 21 -25 7 -53 16 -62 21 -10 5 -27 9 -37 9 -11 0 -23 5 -26 10 -3 6 -15 10
-26 10 -10 0 -19 5 -19 10 0 6 -7 10 -15 10 -17 0 -72 53 -92 88 -15 26 -17
112 -3 112 6 0 10 6 10 13 0 46 127 115 245 133 75 11 304 9 355 -4 25 -6 57
-14 73 -18 15 -3 30 -10 33 -15 3 -5 13 -9 23 -9 44 0 166 -152 195 -244 5
-13 10 -15 19 -8 6 5 32 12 57 16 25 3 65 8 90 11 25 3 54 10 65 15 11 5 40
11 65 14 25 3 70 10 100 16 30 6 78 14 105 17 28 2 54 9 60 14 5 5 24 9 42 9
26 0 33 4 33 20 0 11 -4 20 -10 20 -5 0 -10 14 -10 30 0 17 -4 30 -10 30 -5 0
-10 6 -10 14 0 16 -62 140 -72 144 -5 2 -8 9 -8 15 0 7 -11 25 -25 41 -14 16
-25 33 -25 38 0 11 -121 128 -133 128 -5 0 -17 8 -26 18 -28 32 -225 122 -266
122 -14 0 -25 4 -25 9 0 5 -19 12 -42 15 -24 3 -72 10 -108 17 -84 15 -620 23
-640 9z"/>
<path d="M6870 3610 c-8 -5 -27 -10 -43 -10 -34 0 -107 -22 -107 -32 0 -5 -9
-8 -19 -8 -20 0 -164 -72 -181 -90 -3 -3 -21 -17 -40 -30 -50 -35 -200 -189
-200 -206 0 -8 -9 -14 -20 -14 -19 0 -20 7 -20 170 l0 170 -310 0 -310 0 0
-1780 0 -1780 335 0 335 0 0 628 c0 345 4 633 9 640 6 10 27 -4 82 -57 41 -39
77 -71 82 -71 4 0 21 -13 39 -30 17 -16 35 -30 40 -30 5 0 18 -9 30 -20 12
-11 28 -20 35 -20 7 0 13 -4 13 -10 0 -5 9 -10 20 -10 11 0 20 -4 20 -10 0 -5
7 -10 15 -10 8 0 23 -4 33 -9 56 -29 99 -40 177 -48 28 -3 53 -8 57 -11 10
-10 301 8 313 19 5 5 24 9 41 9 18 0 35 4 38 8 3 4 28 14 55 22 28 7 51 17 51
22 0 4 9 8 20 8 11 0 20 5 20 10 0 6 9 10 20 10 11 0 20 4 20 9 0 5 14 14 30
21 17 7 30 16 30 21 0 5 7 9 15 9 17 0 210 189 245 240 14 19 32 44 42 54 10
11 18 26 18 33 0 7 4 13 9 13 5 0 11 8 14 18 3 9 13 31 23 47 27 48 34 64 34
80 0 8 5 15 10 15 6 0 10 10 10 23 0 13 4 27 8 33 5 5 14 29 21 54 7 25 17 53
22 62 5 10 9 33 9 51 0 18 4 37 9 43 13 13 39 294 40 439 0 71 -16 269 -29
345 -6 36 -13 82 -16 103 -4 20 -10 40 -15 43 -5 3 -9 18 -9 35 0 16 -4 29
-10 29 -5 0 -10 14 -10 30 0 17 -4 30 -8 30 -5 0 -15 23 -22 50 -7 28 -17 50
-22 50 -4 0 -8 9 -8 20 0 11 -3 20 -8 20 -4 0 -18 21 -32 48 -13 26 -27 49
-30 52 -3 3 -17 21 -30 40 -27 40 -225 240 -238 240 -4 0 -17 8 -28 18 -25 22
-74 52 -96 59 -10 3 -18 9 -18 14 0 5 -9 9 -19 9 -11 0 -23 5 -26 10 -3 6 -17
10 -31 10 -13 0 -24 5 -24 10 0 6 -13 10 -30 10 -16 0 -30 5 -30 10 0 6 -18
10 -39 10 -22 0 -43 5 -46 10 -8 13 -345 13 -365 0z m128 -540 c2 -6 17 -10
33 -10 16 0 29 -4 29 -10 0 -5 9 -10 20 -10 11 0 20 -4 20 -10 0 -5 7 -10 16
-10 20 0 184 -165 184 -185 0 -8 5 -15 10 -15 6 0 10 -9 10 -20 0 -11 5 -20
10 -20 6 0 10 -9 10 -20 0 -11 5 -20 10 -20 6 0 10 -11 10 -24 0 -14 4 -27 9
-30 5 -3 11 -20 14 -38 4 -18 12 -58 18 -88 17 -77 18 -486 1 -570 -7 -36 -16
-80 -19 -97 -3 -18 -9 -33 -14 -33 -5 0 -9 -11 -9 -24 0 -14 -4 -28 -10 -31
-5 -3 -10 -15 -10 -26 0 -10 -4 -19 -10 -19 -5 0 -10 -9 -10 -20 0 -11 -4 -20
-8 -20 -5 0 -15 -12 -23 -27 -18 -36 -137 -153 -155 -153 -8 0 -14 -4 -14 -10
0 -5 -9 -10 -20 -10 -11 0 -20 -4 -20 -10 0 -5 -10 -10 -23 -10 -13 0 -27 -4
-33 -9 -30 -29 -304 -28 -304 0 0 5 -9 9 -20 9 -56 0 -230 137 -269 213 -8 15
-18 27 -23 27 -4 0 -8 9 -8 20 0 11 -4 20 -10 20 -5 0 -10 9 -10 20 0 11 -4
20 -10 20 -5 0 -10 9 -10 19 0 11 -4 23 -10 26 -5 3 -10 19 -10 35 0 16 -4 31
-9 34 -9 6 -11 17 -33 176 -20 141 -11 461 13 476 5 3 9 20 9 39 0 19 5 37 10
40 6 3 10 15 10 25 0 22 58 137 82 164 10 11 18 24 18 29 0 12 75 83 111 104
16 9 29 21 29 25 0 4 9 8 20 8 11 0 20 5 20 10 0 6 9 10 20 10 11 0 20 5 20
10 0 6 10 10 23 10 13 0 27 4 33 9 5 5 27 12 49 14 61 7 230 -2 233 -13z"/>
<path d="M2784 2668 c5 -888 9 -1054 27 -1072 5 -6 9 -27 9 -48 0 -21 4 -46 9
-56 5 -9 14 -35 20 -57 16 -53 71 -165 93 -189 10 -11 18 -24 18 -29 0 -12 95
-103 130 -124 17 -9 30 -21 30 -25 0 -4 9 -8 20 -8 11 0 20 -4 20 -9 0 -5 17
-16 38 -26 20 -9 50 -23 66 -31 16 -8 37 -14 47 -14 10 0 21 -4 24 -10 3 -5
17 -10 31 -10 13 0 32 -4 42 -10 23 -13 281 -29 310 -18 13 4 47 8 77 8 30 0
57 4 60 10 3 5 16 10 28 10 24 0 93 22 103 33 4 4 18 7 31 7 13 0 23 5 23 10
0 6 9 10 20 10 11 0 20 5 20 10 0 6 9 10 20 10 11 0 20 5 20 10 0 6 9 10 20
10 11 0 20 5 20 10 0 6 6 10 13 10 6 0 28 14 47 30 19 16 39 30 44 30 15 0
196 190 196 205 0 8 5 15 10 15 6 0 10 -70 10 -190 l0 -190 310 0 310 0 0
1290 0 1290 -329 0 -330 0 -5 -712 c-5 -640 -11 -833 -31 -978 -7 -51 -12 -64
-46 -135 -30 -63 -33 -67 -94 -129 -63 -64 -91 -86 -110 -86 -8 0 -15 -4 -15
-10 0 -5 -9 -10 -20 -10 -11 0 -20 -4 -20 -10 0 -5 -9 -10 -19 -10 -11 0 -23
-5 -26 -10 -3 -6 -25 -10 -49 -10 -23 0 -47 -5 -53 -11 -16 -16 -217 3 -229
22 -3 5 -14 9 -25 9 -10 0 -19 5 -19 10 0 6 -7 10 -15 10 -40 0 -147 139 -170
220 -22 76 -27 252 -31 1008 l-5 832 -340 0 -340 0 5 -892z"/>
</g>
</svg>
